<svg id="Layer_1" data-name="Layer 1" xmlns="http://www.w3.org/2000/svg" viewBox="0 0 1190.31 1276.66"><defs><style>.cls-1{fill:#fff;}</style></defs><rect class="cls-1" x="450" y="338.46" width="148.06" height="16.2"/><path class="cls-1" d="M598.06,450.27H453.25c-.58-1.67-1.12-3.48-1.6-5.43A60.64,60.64,0,0,1,450,434.07H598.06Z"/><path class="cls-1" d="M44.69,614.59a276.74,276.74,0,0,1,257.1-276l1.13,16.16c-135.71,9.5-242,123.61-242,259.8H44.77"/><path class="cls-1" d="M434,369.53h-16.2v-64.8C417.75,205.6,498.4,125,597.53,125S777.3,205.6,777.3,304.73H761.11c0-90.2-73.38-163.59-163.58-163.59S434,214.53,434,304.73Z"/><path class="cls-1" d="M597.53,44.09C453.88,44.09,337,161,337,304.61V372H320.82V304.61C320.82,152,445,27.9,597.53,27.9"/><path class="cls-1" d="M597.53,27.9C750.11,27.9,874.24,152,874.24,304.61H858C858,161,741.18,44.09,597.53,44.09"/><path class="cls-1" d="M597.53,598c-99.13,0-179.78-80.64-179.78-179.77H434c0,90.2,73.38,163.58,163.58,163.58Z"/><path class="cls-1" d="M385.65,326.29H369.46V304.58c0-125.76,102.31-228.07,228.07-228.07S825.6,178.82,825.6,304.58H809.41c0-116.83-95-211.88-211.88-211.88S385.65,187.75,385.65,304.58Z"/><rect class="cls-1" x="369.46" y="369.53" width="16.2" height="48.87"/><path class="cls-1" d="M597.53,646.47a228.12,228.12,0,0,1-223.42-182l15.86-.19c20.09,98,107.38,166,207.56,166Z"/><path class="cls-1" d="M597.53,695.08C445,695.08,320.82,571,320.82,418.38H337C337,562,453.88,678.89,597.53,678.89Z"/><rect class="cls-1" x="354.02" y="338.55" width="50.24" height="16.2"/><path class="cls-1" d="M141.73,614.59A179.81,179.81,0,0,1,305.55,435.52L307,451.66c-83.57,7.35-149,78.9-149,162.87H141.81"/><rect class="cls-1" x="492.28" y="297.45" width="16.2" height="195.32" transform="matrix(0, -1, 1, 0, 103.63, 894.2)"/><path class="cls-1" d="M93.29,614.59c0-125.75,102.32-228.07,228.08-228.07H354v16.19H321.37c-116.82,0-211.85,95-211.88,211.82H93.37"/><path class="cls-1" d="M406.39,451H356.13a66.74,66.74,0,0,1-1.34-7.91,61.88,61.88,0,0,1-.77-8.28h50.24A75.58,75.58,0,0,0,406.39,451Z"/><line class="cls-1" x1="596.61" y1="695.03" x2="596.61" y2="678.83"/><line class="cls-1" x1="596.61" y1="646.59" x2="596.61" y2="630.39"/><line class="cls-1" x1="596.61" y1="597.98" x2="596.61" y2="581.78"/><path class="cls-1" d="M596.61,938.2H321.48C168.9,938.2,44.77,814.07,44.77,661.49v-46.9H61v46.9C61,805.14,177.83,922,321.48,922H596.61Z"/><path class="cls-1" d="M744.67,842.56H596.61V826.37H741.42c.57,1.66,1.12,3.47,1.61,5.42A62.44,62.44,0,0,1,744.67,842.56Z"/><path class="cls-1" d="M321.59,826.4h275v16.19h-275c-99.12,0-179.77-80.64-179.77-179.77V614.3H158v48.52C158,753,231.4,826.4,321.59,826.4Z"/><path class="cls-1" d="M596.61,889.33H321.45C195.69,889.33,93.38,787,93.38,661.26v-46.9h16.2v46.9c0,116.83,95,211.88,211.87,211.88H596.61Z"/><line class="cls-1" x1="597.31" y1="938.14" x2="597.31" y2="921.94"/><line class="cls-1" x1="597.31" y1="842.59" x2="597.31" y2="826.39"/><line class="cls-1" x1="597.31" y1="694.85" x2="597.31" y2="678.66"/><line class="cls-1" x1="597.31" y1="646.41" x2="597.31" y2="630.22"/><line class="cls-1" x1="597.31" y1="597.8" x2="597.31" y2="581.61"/><line class="cls-1" x1="597.28" y1="889.36" x2="597.33" y2="873.16"/><rect class="cls-1" x="595.16" y="922.01" width="149.51" height="16.2"/><path class="cls-1" d="M1150,662.07a276.74,276.74,0,0,1-257.1,276l-1.13-16.16c135.71-9.5,242-123.62,242-259.8h16.12"/><path class="cls-1" d="M760.72,907.13h16.2v64.8c0,99.13-80.65,179.78-179.78,179.78s-179.78-80.65-179.78-179.78h16.2c0,90.2,73.38,163.59,163.58,163.59s163.58-73.39,163.58-163.59Z"/><path class="cls-1" d="M857.66,904.68h16.19v67.37c0,152.58-124.13,276.71-276.71,276.71S320.43,1124.63,320.43,972.05h16.2c0,143.65,116.86,260.52,260.51,260.52S857.66,1115.7,857.66,972.05Z"/><path class="cls-1" d="M597.14,678.86c99.13,0,179.78,80.65,179.78,179.78h-16.2c0-90.2-73.38-163.59-163.58-163.59Z"/><path class="cls-1" d="M809,950.37h16.19v21.71c0,125.76-102.31,228.07-228.07,228.07S369.07,1097.84,369.07,972.08h16.19c0,116.83,95.05,211.88,211.88,211.88S809,1088.91,809,972.08Z"/><rect class="cls-1" x="809.02" y="858.26" width="16.2" height="48.87"/><path class="cls-1" d="M597.14,630.25a228.12,228.12,0,0,1,223.42,182l-15.86.19c-20.09-98-107.38-166-207.56-166Z"/><path class="cls-1" d="M597.14,581.81c152.58,0,276.71,124.13,276.71,276.71H857.66C857.66,714.87,740.79,598,597.14,598Z"/><rect class="cls-1" x="790.41" y="921.91" width="50.24" height="16.2"/><path class="cls-1" d="M1052.94,662.07A179.8,179.8,0,0,1,889.12,841.13L887.7,825c83.56-7.35,149-78.9,149-162.87h16.12"/><rect class="cls-1" x="685.72" y="783.42" width="16.2" height="196.26" transform="matrix(0, -1, 1, 0, -189.98, 1572.5)"/><path class="cls-1" d="M1101.38,662.07c0,125.75-102.32,228.07-228.08,228.07H840.65V874H873.3c116.82,0,211.85-95,211.88-211.82h16.12"/><path class="cls-1" d="M788.28,825.65h50.26a66.74,66.74,0,0,1,1.34,7.91,61.73,61.73,0,0,1,.77,8.28H790.41a75.35,75.35,0,0,0-2.13-16.19Z"/><line class="cls-1" x1="598.06" y1="581.63" x2="598.06" y2="597.83"/><line class="cls-1" x1="598.06" y1="630.07" x2="598.06" y2="646.27"/><line class="cls-1" x1="598.06" y1="678.68" x2="598.06" y2="694.88"/><path class="cls-1" d="M1149.9,662.07h-16.2V615.16c0-143.64-116.86-260.51-260.51-260.51H598.06V338.46H873.19c152.58,0,276.71,124.13,276.71,276.7Z"/><path class="cls-1" d="M1052.85,662.37h-16.2V613.85c0-90.2-73.38-163.59-163.58-163.59h-275V434.07h275c99.13,0,179.78,80.65,179.78,179.78Z"/><path class="cls-1" d="M1101.29,662.3h-16.2V615.4c0-116.83-95-211.88-211.87-211.88H598.06V387.33H873.22c125.76,0,228.07,102.31,228.07,228.07Z"/><line class="cls-1" x1="597.39" y1="387.3" x2="597.34" y2="403.5"/><line class="cls-1" x1="596.44" y1="695" x2="596.44" y2="678.8"/><line class="cls-1" x1="596.44" y1="646.56" x2="596.44" y2="630.36"/><line class="cls-1" x1="596.44" y1="597.95" x2="596.44" y2="581.75"/><rect class="cls-1" x="761.11" y="304.73" width="16.2" height="22.73"/><rect class="cls-1" x="809.41" y="304.43" width="16.2" height="22.73"/><rect class="cls-1" x="858.04" y="304.43" width="16.2" height="22.73"/><rect class="cls-1" x="320.43" y="950.66" width="16.2" height="22.73"/><rect class="cls-1" x="369.07" y="949.51" width="16.2" height="22.73"/><rect class="cls-1" x="417.36" y="950.37" width="16.2" height="22.73"/></svg>